<mxfile host="app.diagrams.net" modified="2023-06-23T12:59:19.960Z" agent="Mozilla/5.0 (Windows NT 10.0; Win64; x64; rv:109.0) Gecko/20100101 Firefox/114.0" etag="a9Qw9PN5Ggj1QMK7X39C" version="21.5.0" type="github">
  <diagram name="Seite-1" id="TjJDQ_LDvjNo-w3dqxPU">
    <mxGraphModel dx="666" dy="816" grid="1" gridSize="10" guides="1" tooltips="1" connect="1" arrows="1" fold="1" page="1" pageScale="1" pageWidth="827" pageHeight="1169" math="0" shadow="0">
      <root>
        <mxCell id="0" />
        <mxCell id="1" parent="0" />
        <mxCell id="J2Xaj6yvW438Az-63D8S-36" style="edgeStyle=none;rounded=0;orthogonalLoop=1;jettySize=auto;html=1;exitX=0.5;exitY=1;exitDx=0;exitDy=0;entryX=0.5;entryY=0;entryDx=0;entryDy=0;" parent="1" source="J2Xaj6yvW438Az-63D8S-1" target="J2Xaj6yvW438Az-63D8S-2" edge="1">
          <mxGeometry relative="1" as="geometry" />
        </mxCell>
        <mxCell id="J2Xaj6yvW438Az-63D8S-39" style="edgeStyle=orthogonalEdgeStyle;rounded=0;orthogonalLoop=1;jettySize=auto;html=1;exitX=1;exitY=0.5;exitDx=0;exitDy=0;entryX=0.5;entryY=0;entryDx=0;entryDy=0;" parent="1" source="J2Xaj6yvW438Az-63D8S-1" target="J2Xaj6yvW438Az-63D8S-32" edge="1">
          <mxGeometry relative="1" as="geometry" />
        </mxCell>
        <mxCell id="J2Xaj6yvW438Az-63D8S-1" value="EIN Taster" style="ellipse;whiteSpace=wrap;html=1;" parent="1" vertex="1">
          <mxGeometry x="230" width="100" height="60" as="geometry" />
        </mxCell>
        <mxCell id="6_2-BPM-zBkIEb3v9uu6-4" style="edgeStyle=none;rounded=0;orthogonalLoop=1;jettySize=auto;html=1;exitX=0.5;exitY=1;exitDx=0;exitDy=0;entryX=0.5;entryY=0;entryDx=0;entryDy=0;" edge="1" parent="1" source="J2Xaj6yvW438Az-63D8S-2" target="J2Xaj6yvW438Az-63D8S-12">
          <mxGeometry relative="1" as="geometry" />
        </mxCell>
        <mxCell id="J2Xaj6yvW438Az-63D8S-2" value="&lt;div&gt;einmal&lt;/div&gt;&lt;div&gt;=false&lt;/div&gt;" style="rounded=1;whiteSpace=wrap;html=1;" parent="1" vertex="1">
          <mxGeometry x="245" y="85" width="70" height="40" as="geometry" />
        </mxCell>
        <mxCell id="J2Xaj6yvW438Az-63D8S-15" style="edgeStyle=none;rounded=0;orthogonalLoop=1;jettySize=auto;html=1;exitX=0.5;exitY=1;exitDx=0;exitDy=0;entryX=0.5;entryY=0;entryDx=0;entryDy=0;" parent="1" source="J2Xaj6yvW438Az-63D8S-3" target="J2Xaj6yvW438Az-63D8S-14" edge="1">
          <mxGeometry relative="1" as="geometry" />
        </mxCell>
        <mxCell id="J2Xaj6yvW438Az-63D8S-3" value="Funktion blink_gelb" style="rounded=1;whiteSpace=wrap;html=1;" parent="1" vertex="1">
          <mxGeometry x="15" y="310" width="120" height="60" as="geometry" />
        </mxCell>
        <mxCell id="6_2-BPM-zBkIEb3v9uu6-43" style="edgeStyle=orthogonalEdgeStyle;rounded=0;orthogonalLoop=1;jettySize=auto;html=1;exitX=0.5;exitY=1;exitDx=0;exitDy=0;entryX=0.5;entryY=0;entryDx=0;entryDy=0;elbow=vertical;" edge="1" parent="1" source="J2Xaj6yvW438Az-63D8S-6" target="J2Xaj6yvW438Az-63D8S-25">
          <mxGeometry relative="1" as="geometry" />
        </mxCell>
        <mxCell id="J2Xaj6yvW438Az-63D8S-6" value="licht_merk" style="rounded=1;whiteSpace=wrap;html=1;" parent="1" vertex="1">
          <mxGeometry x="690" y="820" width="120" height="60" as="geometry" />
        </mxCell>
        <mxCell id="6_2-BPM-zBkIEb3v9uu6-3" style="edgeStyle=none;rounded=0;orthogonalLoop=1;jettySize=auto;html=1;exitX=0;exitY=0.5;exitDx=0;exitDy=0;" edge="1" parent="1" source="J2Xaj6yvW438Az-63D8S-7" target="J2Xaj6yvW438Az-63D8S-3">
          <mxGeometry relative="1" as="geometry" />
        </mxCell>
        <mxCell id="6_2-BPM-zBkIEb3v9uu6-17" style="edgeStyle=none;rounded=0;orthogonalLoop=1;jettySize=auto;html=1;exitX=0.5;exitY=1;exitDx=0;exitDy=0;entryX=0.5;entryY=0;entryDx=0;entryDy=0;elbow=vertical;" edge="1" parent="1" source="J2Xaj6yvW438Az-63D8S-7" target="6_2-BPM-zBkIEb3v9uu6-9">
          <mxGeometry relative="1" as="geometry" />
        </mxCell>
        <mxCell id="J2Xaj6yvW438Az-63D8S-7" value="Einschaltverzögerung wird gestartet" style="rounded=1;whiteSpace=wrap;html=1;" parent="1" vertex="1">
          <mxGeometry x="220" y="310" width="120" height="60" as="geometry" />
        </mxCell>
        <mxCell id="J2Xaj6yvW438Az-63D8S-18" style="edgeStyle=none;rounded=0;orthogonalLoop=1;jettySize=auto;html=1;exitX=0;exitY=0.5;exitDx=0;exitDy=0;entryX=1;entryY=0.5;entryDx=0;entryDy=0;" parent="1" source="J2Xaj6yvW438Az-63D8S-9" target="J2Xaj6yvW438Az-63D8S-16" edge="1">
          <mxGeometry relative="1" as="geometry" />
        </mxCell>
        <mxCell id="J2Xaj6yvW438Az-63D8S-9" value="Potenziometer Verzögerungszeit" style="rounded=0;whiteSpace=wrap;html=1;" parent="1" vertex="1">
          <mxGeometry x="590" y="310" width="120" height="60" as="geometry" />
        </mxCell>
        <mxCell id="6_2-BPM-zBkIEb3v9uu6-7" style="edgeStyle=none;rounded=0;orthogonalLoop=1;jettySize=auto;html=1;exitX=0.5;exitY=1;exitDx=0;exitDy=0;entryX=0.5;entryY=0;entryDx=0;entryDy=0;" edge="1" parent="1" source="J2Xaj6yvW438Az-63D8S-12" target="J2Xaj6yvW438Az-63D8S-7">
          <mxGeometry relative="1" as="geometry" />
        </mxCell>
        <mxCell id="J2Xaj6yvW438Az-63D8S-12" value="wenn einmal false&amp;amp;betrieb true" style="rhombus;whiteSpace=wrap;html=1;" parent="1" vertex="1">
          <mxGeometry x="207.5" y="150" width="145" height="110" as="geometry" />
        </mxCell>
        <mxCell id="J2Xaj6yvW438Az-63D8S-14" value="LED_gelb blinkt" style="rounded=0;whiteSpace=wrap;html=1;" parent="1" vertex="1">
          <mxGeometry x="15" y="450" width="120" height="60" as="geometry" />
        </mxCell>
        <mxCell id="J2Xaj6yvW438Az-63D8S-17" style="edgeStyle=none;rounded=0;orthogonalLoop=1;jettySize=auto;html=1;exitX=0;exitY=0.5;exitDx=0;exitDy=0;entryX=1;entryY=0.5;entryDx=0;entryDy=0;" parent="1" source="J2Xaj6yvW438Az-63D8S-16" target="J2Xaj6yvW438Az-63D8S-7" edge="1">
          <mxGeometry relative="1" as="geometry" />
        </mxCell>
        <mxCell id="J2Xaj6yvW438Az-63D8S-16" value="" style="rhombus;whiteSpace=wrap;html=1;" parent="1" vertex="1">
          <mxGeometry x="430" y="300" width="80" height="80" as="geometry" />
        </mxCell>
        <mxCell id="6_2-BPM-zBkIEb3v9uu6-42" style="edgeStyle=orthogonalEdgeStyle;rounded=0;orthogonalLoop=1;jettySize=auto;html=1;exitX=0.5;exitY=1;exitDx=0;exitDy=0;elbow=vertical;" edge="1" parent="1" source="J2Xaj6yvW438Az-63D8S-19" target="J2Xaj6yvW438Az-63D8S-25">
          <mxGeometry relative="1" as="geometry" />
        </mxCell>
        <mxCell id="J2Xaj6yvW438Az-63D8S-19" value="bewegung_merk" style="rounded=1;whiteSpace=wrap;html=1;" parent="1" vertex="1">
          <mxGeometry x="400" y="820" width="120" height="60" as="geometry" />
        </mxCell>
        <mxCell id="6_2-BPM-zBkIEb3v9uu6-18" style="edgeStyle=none;rounded=0;orthogonalLoop=1;jettySize=auto;html=1;exitX=0.5;exitY=1;exitDx=0;exitDy=0;elbow=vertical;" edge="1" parent="1" source="J2Xaj6yvW438Az-63D8S-20" target="J2Xaj6yvW438Az-63D8S-25">
          <mxGeometry relative="1" as="geometry" />
        </mxCell>
        <mxCell id="J2Xaj6yvW438Az-63D8S-20" value="magnet_merk" style="rounded=1;whiteSpace=wrap;html=1;" parent="1" vertex="1">
          <mxGeometry x="540" y="820" width="120" height="60" as="geometry" />
        </mxCell>
        <mxCell id="J2Xaj6yvW438Az-63D8S-31" style="edgeStyle=none;rounded=0;orthogonalLoop=1;jettySize=auto;html=1;exitX=0.5;exitY=1;exitDx=0;exitDy=0;entryX=0.5;entryY=0;entryDx=0;entryDy=0;" parent="1" source="J2Xaj6yvW438Az-63D8S-21" target="J2Xaj6yvW438Az-63D8S-19" edge="1">
          <mxGeometry relative="1" as="geometry" />
        </mxCell>
        <mxCell id="J2Xaj6yvW438Az-63D8S-21" value="Bewegungsmelder" style="rounded=0;whiteSpace=wrap;html=1;" parent="1" vertex="1">
          <mxGeometry x="400" y="700" width="120" height="60" as="geometry" />
        </mxCell>
        <mxCell id="J2Xaj6yvW438Az-63D8S-26" style="edgeStyle=none;rounded=0;orthogonalLoop=1;jettySize=auto;html=1;exitX=0.5;exitY=1;exitDx=0;exitDy=0;entryX=0.5;entryY=0;entryDx=0;entryDy=0;" parent="1" source="J2Xaj6yvW438Az-63D8S-22" target="J2Xaj6yvW438Az-63D8S-20" edge="1">
          <mxGeometry relative="1" as="geometry" />
        </mxCell>
        <mxCell id="J2Xaj6yvW438Az-63D8S-22" value="Reed-Kontakt" style="rounded=0;whiteSpace=wrap;html=1;" parent="1" vertex="1">
          <mxGeometry x="540" y="700" width="120" height="60" as="geometry" />
        </mxCell>
        <mxCell id="J2Xaj6yvW438Az-63D8S-28" style="edgeStyle=none;rounded=0;orthogonalLoop=1;jettySize=auto;html=1;exitX=0.5;exitY=1;exitDx=0;exitDy=0;" parent="1" source="J2Xaj6yvW438Az-63D8S-23" target="J2Xaj6yvW438Az-63D8S-6" edge="1">
          <mxGeometry relative="1" as="geometry" />
        </mxCell>
        <mxCell id="J2Xaj6yvW438Az-63D8S-23" value="Lichtschranke" style="rounded=0;whiteSpace=wrap;html=1;" parent="1" vertex="1">
          <mxGeometry x="690" y="700" width="120" height="60" as="geometry" />
        </mxCell>
        <mxCell id="6_2-BPM-zBkIEb3v9uu6-27" style="edgeStyle=none;rounded=0;orthogonalLoop=1;jettySize=auto;html=1;exitX=0;exitY=0.5;exitDx=0;exitDy=0;entryX=1;entryY=0.5;entryDx=0;entryDy=0;elbow=vertical;" edge="1" parent="1" source="J2Xaj6yvW438Az-63D8S-25" target="6_2-BPM-zBkIEb3v9uu6-26">
          <mxGeometry relative="1" as="geometry" />
        </mxCell>
        <mxCell id="J2Xaj6yvW438Az-63D8S-25" value="&lt;div&gt;wenn&lt;/div&gt;&lt;div&gt;2 Melder auslösen&lt;br&gt;&lt;/div&gt;" style="rhombus;whiteSpace=wrap;html=1;" parent="1" vertex="1">
          <mxGeometry x="522.5" y="960" width="155" height="120" as="geometry" />
        </mxCell>
        <mxCell id="6_2-BPM-zBkIEb3v9uu6-5" style="edgeStyle=orthogonalEdgeStyle;rounded=0;orthogonalLoop=1;jettySize=auto;html=1;exitX=0.5;exitY=1;exitDx=0;exitDy=0;entryX=1;entryY=0.5;entryDx=0;entryDy=0;" edge="1" parent="1" source="J2Xaj6yvW438Az-63D8S-32" target="J2Xaj6yvW438Az-63D8S-12">
          <mxGeometry relative="1" as="geometry" />
        </mxCell>
        <mxCell id="J2Xaj6yvW438Az-63D8S-32" value="betrieb=true" style="rounded=1;whiteSpace=wrap;html=1;" parent="1" vertex="1">
          <mxGeometry x="360" y="90" width="70" height="30" as="geometry" />
        </mxCell>
        <mxCell id="6_2-BPM-zBkIEb3v9uu6-10" style="edgeStyle=none;rounded=0;orthogonalLoop=1;jettySize=auto;html=1;" edge="1" parent="1" source="6_2-BPM-zBkIEb3v9uu6-6">
          <mxGeometry relative="1" as="geometry">
            <mxPoint x="270" y="450" as="targetPoint" />
          </mxGeometry>
        </mxCell>
        <mxCell id="6_2-BPM-zBkIEb3v9uu6-14" style="edgeStyle=orthogonalEdgeStyle;rounded=0;orthogonalLoop=1;jettySize=auto;html=1;exitX=1;exitY=0.5;exitDx=0;exitDy=0;elbow=vertical;" edge="1" parent="1" source="6_2-BPM-zBkIEb3v9uu6-6" target="J2Xaj6yvW438Az-63D8S-21">
          <mxGeometry relative="1" as="geometry" />
        </mxCell>
        <mxCell id="6_2-BPM-zBkIEb3v9uu6-15" style="edgeStyle=orthogonalEdgeStyle;rounded=0;orthogonalLoop=1;jettySize=auto;html=1;exitX=1;exitY=0.5;exitDx=0;exitDy=0;elbow=vertical;" edge="1" parent="1" source="6_2-BPM-zBkIEb3v9uu6-6" target="J2Xaj6yvW438Az-63D8S-23">
          <mxGeometry relative="1" as="geometry" />
        </mxCell>
        <mxCell id="6_2-BPM-zBkIEb3v9uu6-16" style="edgeStyle=orthogonalEdgeStyle;rounded=0;orthogonalLoop=1;jettySize=auto;html=1;exitX=1;exitY=0.5;exitDx=0;exitDy=0;elbow=vertical;" edge="1" parent="1" source="6_2-BPM-zBkIEb3v9uu6-6" target="J2Xaj6yvW438Az-63D8S-22">
          <mxGeometry relative="1" as="geometry" />
        </mxCell>
        <mxCell id="6_2-BPM-zBkIEb3v9uu6-25" style="edgeStyle=none;rounded=0;orthogonalLoop=1;jettySize=auto;html=1;exitX=0.5;exitY=1;exitDx=0;exitDy=0;entryX=0.5;entryY=0;entryDx=0;entryDy=0;elbow=vertical;" edge="1" parent="1" source="6_2-BPM-zBkIEb3v9uu6-6" target="6_2-BPM-zBkIEb3v9uu6-24">
          <mxGeometry relative="1" as="geometry" />
        </mxCell>
        <mxCell id="6_2-BPM-zBkIEb3v9uu6-6" value="&lt;div&gt;betrieb=false&lt;/div&gt;&lt;div&gt;einmal=true&lt;/div&gt;&lt;div&gt;scharf=true&lt;br&gt;&lt;/div&gt;" style="rounded=1;whiteSpace=wrap;html=1;" vertex="1" parent="1">
          <mxGeometry x="210" y="610" width="120" height="60" as="geometry" />
        </mxCell>
        <mxCell id="6_2-BPM-zBkIEb3v9uu6-13" style="edgeStyle=elbowEdgeStyle;rounded=0;orthogonalLoop=1;jettySize=auto;elbow=vertical;html=1;exitX=0;exitY=1;exitDx=0;exitDy=0;" edge="1" parent="1" source="6_2-BPM-zBkIEb3v9uu6-9" target="6_2-BPM-zBkIEb3v9uu6-11">
          <mxGeometry relative="1" as="geometry" />
        </mxCell>
        <mxCell id="6_2-BPM-zBkIEb3v9uu6-9" value="Zeit läuft ab" style="shape=process;whiteSpace=wrap;html=1;backgroundOutline=1;" vertex="1" parent="1">
          <mxGeometry x="220" y="450" width="120" height="60" as="geometry" />
        </mxCell>
        <mxCell id="6_2-BPM-zBkIEb3v9uu6-11" value="LED_gelb aus" style="rounded=1;whiteSpace=wrap;html=1;" vertex="1" parent="1">
          <mxGeometry x="15" y="550" width="120" height="60" as="geometry" />
        </mxCell>
        <mxCell id="6_2-BPM-zBkIEb3v9uu6-19" style="rounded=0;orthogonalLoop=1;jettySize=auto;html=1;exitX=0;exitY=0.5;exitDx=0;exitDy=0;entryX=0.019;entryY=0.45;entryDx=0;entryDy=0;entryPerimeter=0;elbow=vertical;" edge="1" parent="1" source="J2Xaj6yvW438Az-63D8S-25" target="J2Xaj6yvW438Az-63D8S-25">
          <mxGeometry relative="1" as="geometry" />
        </mxCell>
        <mxCell id="6_2-BPM-zBkIEb3v9uu6-22" value="&lt;div&gt;Aus Taster=&lt;/div&gt;&lt;div&gt;Reset-Funktion&lt;br&gt;&lt;/div&gt;" style="ellipse;whiteSpace=wrap;html=1;" vertex="1" parent="1">
          <mxGeometry x="690" width="100" height="60" as="geometry" />
        </mxCell>
        <mxCell id="6_2-BPM-zBkIEb3v9uu6-23" value="" style="shape=flexArrow;endArrow=classic;html=1;rounded=0;elbow=vertical;" edge="1" parent="1">
          <mxGeometry width="50" height="50" relative="1" as="geometry">
            <mxPoint x="710" y="55" as="sourcePoint" />
            <mxPoint x="550" y="150" as="targetPoint" />
          </mxGeometry>
        </mxCell>
        <mxCell id="6_2-BPM-zBkIEb3v9uu6-24" value="LED_grün" style="rounded=0;whiteSpace=wrap;html=1;" vertex="1" parent="1">
          <mxGeometry x="210" y="700" width="120" height="60" as="geometry" />
        </mxCell>
        <mxCell id="6_2-BPM-zBkIEb3v9uu6-40" style="edgeStyle=none;rounded=0;orthogonalLoop=1;jettySize=auto;html=1;exitX=0.5;exitY=1;exitDx=0;exitDy=0;entryX=0.5;entryY=0;entryDx=0;entryDy=0;elbow=vertical;" edge="1" parent="1" source="6_2-BPM-zBkIEb3v9uu6-26" target="6_2-BPM-zBkIEb3v9uu6-37">
          <mxGeometry relative="1" as="geometry" />
        </mxCell>
        <mxCell id="6_2-BPM-zBkIEb3v9uu6-26" value="&lt;div&gt;alarm_merk=true&lt;/div&gt;&lt;div&gt;LED_grün aus&lt;br&gt;&lt;/div&gt;" style="rounded=1;whiteSpace=wrap;html=1;" vertex="1" parent="1">
          <mxGeometry x="225" y="985" width="130" height="70" as="geometry" />
        </mxCell>
        <mxCell id="6_2-BPM-zBkIEb3v9uu6-28" value="LED_rot blinkt" style="rounded=0;whiteSpace=wrap;html=1;" vertex="1" parent="1">
          <mxGeometry x="50" y="1380" width="120" height="60" as="geometry" />
        </mxCell>
        <mxCell id="6_2-BPM-zBkIEb3v9uu6-31" style="edgeStyle=none;rounded=0;orthogonalLoop=1;jettySize=auto;html=1;exitX=0.5;exitY=1;exitDx=0;exitDy=0;elbow=vertical;" edge="1" parent="1" source="6_2-BPM-zBkIEb3v9uu6-29" target="6_2-BPM-zBkIEb3v9uu6-30">
          <mxGeometry relative="1" as="geometry" />
        </mxCell>
        <mxCell id="6_2-BPM-zBkIEb3v9uu6-29" value="Relais schaltet externen Stromkeis" style="rounded=0;whiteSpace=wrap;html=1;" vertex="1" parent="1">
          <mxGeometry x="230" y="1380" width="120" height="60" as="geometry" />
        </mxCell>
        <mxCell id="6_2-BPM-zBkIEb3v9uu6-30" value="Alarmsirene" style="ellipse;whiteSpace=wrap;html=1;" vertex="1" parent="1">
          <mxGeometry x="230" y="1510" width="120" height="80" as="geometry" />
        </mxCell>
        <mxCell id="6_2-BPM-zBkIEb3v9uu6-35" style="edgeStyle=none;rounded=0;orthogonalLoop=1;jettySize=auto;html=1;exitX=0.5;exitY=1;exitDx=0;exitDy=0;entryX=0.5;entryY=0;entryDx=0;entryDy=0;elbow=vertical;" edge="1" parent="1" source="6_2-BPM-zBkIEb3v9uu6-32" target="6_2-BPM-zBkIEb3v9uu6-34">
          <mxGeometry relative="1" as="geometry" />
        </mxCell>
        <mxCell id="6_2-BPM-zBkIEb3v9uu6-32" value="Einschaltverzögerung wird gestartet" style="rounded=1;whiteSpace=wrap;html=1;" vertex="1" parent="1">
          <mxGeometry x="230" y="1169" width="120" height="60" as="geometry" />
        </mxCell>
        <mxCell id="6_2-BPM-zBkIEb3v9uu6-38" style="edgeStyle=none;rounded=0;orthogonalLoop=1;jettySize=auto;html=1;exitX=0.5;exitY=1;exitDx=0;exitDy=0;entryX=0.5;entryY=0;entryDx=0;entryDy=0;elbow=vertical;" edge="1" parent="1" source="6_2-BPM-zBkIEb3v9uu6-34" target="6_2-BPM-zBkIEb3v9uu6-29">
          <mxGeometry relative="1" as="geometry" />
        </mxCell>
        <mxCell id="6_2-BPM-zBkIEb3v9uu6-39" style="edgeStyle=orthogonalEdgeStyle;rounded=0;orthogonalLoop=1;jettySize=auto;html=1;exitX=0;exitY=1;exitDx=0;exitDy=0;entryX=0.5;entryY=0;entryDx=0;entryDy=0;elbow=vertical;" edge="1" parent="1" source="6_2-BPM-zBkIEb3v9uu6-34" target="6_2-BPM-zBkIEb3v9uu6-28">
          <mxGeometry relative="1" as="geometry" />
        </mxCell>
        <mxCell id="6_2-BPM-zBkIEb3v9uu6-34" value="Zeit läuft ab" style="shape=process;whiteSpace=wrap;html=1;backgroundOutline=1;" vertex="1" parent="1">
          <mxGeometry x="251.25" y="1270" width="77.5" height="40" as="geometry" />
        </mxCell>
        <mxCell id="6_2-BPM-zBkIEb3v9uu6-41" style="edgeStyle=none;rounded=0;orthogonalLoop=1;jettySize=auto;html=1;exitX=0.5;exitY=1;exitDx=0;exitDy=0;entryX=0.5;entryY=0;entryDx=0;entryDy=0;elbow=vertical;" edge="1" parent="1" source="6_2-BPM-zBkIEb3v9uu6-37" target="6_2-BPM-zBkIEb3v9uu6-32">
          <mxGeometry relative="1" as="geometry" />
        </mxCell>
        <mxCell id="6_2-BPM-zBkIEb3v9uu6-37" value="Funktion:&lt;br&gt;Alarm" style="rounded=1;whiteSpace=wrap;html=1;" vertex="1" parent="1">
          <mxGeometry x="230" y="1100" width="120" height="40" as="geometry" />
        </mxCell>
      </root>
    </mxGraphModel>
  </diagram>
</mxfile>
